<svg width="26" height="29" viewBox="0 0 26 29" fill="none" xmlns="http://www.w3.org/2000/svg">
<path fill-rule="evenodd" clip-rule="evenodd" d="M24.4303 6.49106L13.6292 0.251581C13.344 0.086773 13.0205 0 12.6911 0C12.3617 0 12.0381 0.086773 11.7529 0.251581L8.33297 2.22088V5.82667L11.7466 3.8536C12.0321 3.68965 12.3556 3.60337 12.6848 3.60337C13.014 3.60337 13.3375 3.68965 13.623 3.8536L21.308 8.29081C21.5937 8.45636 21.8309 8.69411 21.9958 8.98023C22.1607 9.26635 22.2475 9.59078 22.2475 9.92101V11.6994H25.3697V8.12377C25.3709 7.79296 25.2847 7.46771 25.1197 7.18098C24.9547 6.89425 24.7169 6.65624 24.4303 6.49106ZM21.9964 19.737C22.1611 19.4517 22.2478 19.128 22.2476 18.7986V17.088H25.3623V20.6034C25.3625 20.9328 25.2759 21.2565 25.1112 21.5418C24.9465 21.8271 24.7095 22.064 24.4241 22.2286L13.6231 28.468C13.3379 28.6328 13.0143 28.7196 12.6849 28.7196C12.3555 28.7196 12.0319 28.6328 11.7467 28.468L0.938185 22.2286C0.653425 22.0633 0.416955 21.8262 0.252343 21.5411C0.087732 21.2559 0.00072818 20.9326 3.04637e-06 20.6034V8.12317C-0.000591283 7.79264 0.0857869 7.46778 0.250464 7.18119C0.415141 6.8946 0.65232 6.65639 0.938185 6.49046L3.1323 5.19434L3.12351 18.7986C3.12423 19.1272 3.21128 19.4498 3.37593 19.7341C3.54059 20.0185 3.77707 20.2546 4.06169 20.4188L11.748 24.861C12.0332 25.0258 12.3568 25.1126 12.6862 25.1126C13.0156 25.1126 13.3392 25.0258 13.6244 24.861L21.3094 20.4238C21.5948 20.2592 21.8317 20.0223 21.9964 19.737ZM16.847 12.5081V16.208C16.8473 16.3765 16.8034 16.542 16.7196 16.6882C16.6359 16.8343 16.5152 16.9559 16.3697 17.0407L13.1608 18.8907C13.0149 18.9753 12.8491 19.0198 12.6804 19.0198C12.5117 19.0198 12.346 18.9753 12.2 18.8907L8.99616 17.0407C8.84998 16.9563 8.72858 16.835 8.64414 16.6888C8.55971 16.5426 8.51522 16.3768 8.51514 16.208V12.5081C8.51509 12.3393 8.55953 12.1734 8.64398 12.0272C8.72842 11.881 8.84989 11.7597 8.99616 11.6754L12.2 9.8254C12.346 9.74082 12.5117 9.69629 12.6804 9.69629C12.8491 9.69629 13.0149 9.74082 13.1608 9.8254L16.366 11.6754C16.5122 11.7597 16.6337 11.881 16.7182 12.0272C16.8026 12.1734 16.847 12.3393 16.847 12.5081ZM13.6226 5.02237L20.3004 8.87809C20.5865 9.04222 20.8242 9.27888 20.9896 9.56422C21.155 9.84956 21.2422 10.1735 21.2424 10.5033V18.2147C21.2426 18.5449 21.1556 18.8694 20.9902 19.1552C20.8248 19.441 20.5869 19.678 20.3004 19.8424L13.6226 23.6981C13.3374 23.8629 13.0139 23.9497 12.6845 23.9497C12.3551 23.9497 12.0315 23.8629 11.7463 23.6981L5.06221 19.8474C4.77745 19.6821 4.54098 19.4451 4.37636 19.1599C4.21175 18.8748 4.12475 18.5515 4.12402 18.2222V4.65815L7.25506 2.84961V16.4062C7.25503 16.7357 7.34185 17.0594 7.50678 17.3448C7.6717 17.6301 7.90891 17.8669 8.1945 18.0313L11.7413 20.0798C12.0265 20.2446 12.35 20.3313 12.6794 20.3313C13.0088 20.3313 13.3324 20.2446 13.6176 20.0798L17.1644 18.0313C17.4491 17.866 17.6856 17.629 17.8502 17.3439C18.0148 17.0587 18.1018 16.7354 18.1026 16.4062V12.3106C18.1021 11.982 18.0158 11.6593 17.8521 11.3744C17.6884 11.0895 17.453 10.8524 17.1694 10.6866L13.6226 8.63946C13.3374 8.47465 13.0139 8.38788 12.6845 8.38788C12.3551 8.38788 12.0315 8.47465 11.7463 8.63946L8.33266 10.61V6.99419L11.7463 5.02237C12.0315 4.85757 12.3551 4.77079 12.6845 4.77079C13.0139 4.77079 13.3374 4.85757 13.6226 5.02237Z" fill="#A58A72"/>
</svg>
